# 3ds Max Wavefront OBJ Exporter v0.97b - (c)2007 guruware
# File Created: 11.08.2019 01:13:15

#
# object Box001
#

v  15.7634 3974.6809 -2503.3826
v  15.7634 4992.1577 -2566.1636
v  843.7010 4992.1577 -2503.6077
v  843.7010 3974.6809 -2503.3826
v  15.7634 5998.7070 -2715.2285
v  843.7010 5998.7065 -2503.6074
v  15.7634 7005.6025 -2944.1113
v  843.7010 7024.5894 -2581.5964
v  15.7634 8121.7446 -2937.1521
v  843.7010 8031.1382 -2571.7942
v  15.7634 9882.2949 -2650.9006
v  843.7011 9018.3535 -2650.9006
v  15.7634 4005.0854 -1028.7579
v  843.7010 4005.0854 -1028.7579
v  843.7010 5025.4819 -1098.4429
v  15.7634 5025.4819 -1098.4429
v  843.7010 6029.1113 -1157.2838
v  15.7634 6029.1113 -867.7952
v  843.7010 7035.6606 -1157.2838
v  15.7634 7035.6606 -867.7952
v  843.7010 8042.2090 -1186.7045
v  15.7634 8042.2090 -867.7950
v  809.2531 9221.6416 -1304.3875
v  15.7634 9643.4150 -1499.2609
v  15.7634 94.4674 -2423.3779
v  843.7010 94.4674 -2423.3779
v  843.7010 94.4674 -1774.2013
v  15.7634 94.4674 -1774.2013
v  843.7010 124.8723 -948.7534
v  15.7634 124.8723 -948.7534
v  843.7010 4992.1577 -1854.4307
v  843.7010 3974.6809 -1854.2056
v  1052.3698 5998.7065 -1854.4304
v  1052.3698 6966.3950 -1923.3411
v  1127.4022 8001.0693 -1962.5687
v  894.8472 9093.9365 -2041.1091
v  15.7634 10205.6064 -2310.4390
v  843.7010 2996.4314 -2483.2122
v  15.7634 2996.4314 -2483.2122
v  843.7010 2996.4314 -1834.0354
v  843.7010 3026.8359 -1008.5878
v  15.7634 3026.8359 -1008.5878
v  843.7010 2029.1101 -2463.2676
v  15.7634 2029.1101 -2463.2676
v  843.7010 2029.1101 -1814.0907
v  843.7010 2059.5146 -988.6431
v  15.7634 2059.5146 -988.6431
v  843.7010 1061.7883 -2443.3228
v  15.7634 1061.7883 -2443.3228
v  843.7010 1061.7883 -1794.1460
v  843.7010 1092.1932 -968.6982
v  15.7634 1092.1932 -968.6982
v  -812.1743 3974.6809 -2503.3826
v  -812.1743 4992.1577 -2503.6077
v  -812.1743 5998.7065 -2503.6074
v  -812.1743 7024.5894 -2581.5964
v  -812.1743 8031.1382 -2571.7942
v  -812.1744 9018.3535 -2650.9006
v  -812.1743 5025.4819 -1098.4429
v  -812.1743 4005.0854 -1028.7579
v  -812.1743 6029.1113 -1157.2838
v  -812.1743 7035.6606 -1157.2838
v  -812.1743 8042.2090 -1186.7045
v  -777.7264 9221.6416 -1304.3875
v  -812.1743 94.4674 -1774.2013
v  -812.1743 94.4674 -2423.3779
v  -812.1743 124.8723 -948.7534
v  -812.1743 3974.6809 -1854.2056
v  -812.1743 4992.1577 -1854.4307
v  -1020.8431 5998.7065 -1854.4304
v  -1020.8431 6966.3950 -1923.3411
v  -1095.8756 8001.0693 -1962.5687
v  -863.3206 9093.9365 -2041.1091
v  -812.1743 2996.4314 -2483.2122
v  -812.1743 2996.4314 -1834.0354
v  -812.1743 3026.8359 -1008.5878
v  -812.1743 2029.1101 -2463.2676
v  -812.1743 2029.1101 -1814.0907
v  -812.1743 2059.5146 -988.6431
v  -812.1743 1061.7883 -2443.3228
v  -812.1743 1061.7883 -1794.1460
v  -812.1743 1092.1932 -968.6982
# 82 vertices

vn -0.0000 -0.0269 -0.9996
vn 0.0000 -0.0631 -0.9980
vn 0.0590 -0.0174 -0.9981
vn 0.0000 -0.0002 -1.0000
vn 0.0000 -0.1437 -0.9896
vn 0.2095 -0.0771 -0.9748
vn -0.0000 -0.1060 -0.9944
vn 0.3682 -0.0690 -0.9272
vn 0.0000 0.0203 -0.9998
vn 0.3999 -0.0302 -0.9160
vn 0.0000 0.1605 -0.9870
vn 0.2443 0.0829 -0.9662
vn 0.0000 0.0681 0.9977
vn 0.0000 0.0633 0.9980
vn 0.0000 0.0008 1.0000
vn 0.2601 -0.0488 0.9643
vn 0.0000 -0.1101 0.9939
vn 0.3300 0.0138 0.9439
vn 0.0000 0.0079 1.0000
vn 0.3522 0.0582 0.9341
vn -0.0000 0.1054 0.9944
vn 0.0834 0.2961 0.9515
vn 0.0000 0.3669 0.9303
vn 0.0000 -1.0000 -0.0000
vn 0.0000 -0.9998 0.0184
vn 0.0000 -0.9993 0.0368
vn 1.0000 0.0000 -0.0000
vn 0.9962 -0.0652 -0.0581
vn 0.9971 -0.0703 0.0287
vn 0.9521 -0.0114 -0.3056
vn 0.9970 -0.0737 0.0222
vn 0.9436 -0.0375 -0.3289
vn 0.9995 -0.0262 -0.0169
vn 0.9290 0.0599 -0.3651
vn 0.9978 0.0475 -0.0464
vn 0.9965 -0.0066 -0.0828
vn 0.9882 0.1404 -0.0606
vn 0.9709 -0.0588 0.2322
vn 0.9637 0.0092 0.2667
vn 0.9453 0.0161 0.3259
vn 0.9706 0.1526 0.1861
vn 0.7708 0.5994 -0.2157
vn 0.0000 0.7251 -0.6886
vn -0.0000 0.9980 -0.0624
vn 0.7007 0.7133 0.0125
vn 0.0000 0.9374 0.3482
vn 0.4852 0.8693 -0.0943
vn 0.0000 -0.0206 -0.9998
vn 0.0000 0.0206 0.9998
vn -0.0590 -0.0174 -0.9981
vn -0.2095 -0.0771 -0.9748
vn -0.3682 -0.0690 -0.9272
vn -0.3999 -0.0302 -0.9160
vn -0.2443 0.0829 -0.9662
vn -0.2601 -0.0488 0.9643
vn -0.3300 0.0138 0.9439
vn -0.3522 0.0582 0.9341
vn -0.0834 0.2961 0.9515
vn -1.0000 0.0000 -0.0000
vn -0.9971 -0.0703 0.0287
vn -0.9962 -0.0652 -0.0581
vn -0.9970 -0.0737 0.0222
vn -0.9521 -0.0114 -0.3056
vn -0.9995 -0.0262 -0.0169
vn -0.9436 -0.0375 -0.3289
vn -0.9978 0.0475 -0.0464
vn -0.9290 0.0599 -0.3651
vn -0.9882 0.1404 -0.0606
vn -0.9965 -0.0066 -0.0828
vn -0.9709 -0.0588 0.2322
vn -0.9637 0.0092 0.2667
vn -0.9453 0.0161 0.3259
vn -0.9706 0.1526 0.1861
vn -0.7708 0.5994 -0.2157
vn -0.7007 0.7133 0.0125
vn -0.4852 0.8693 -0.0943
# 76 vertex normals

vt 0.5000 0.0000 0.0000
vt 0.5000 0.2000 0.0000
vt 0.0000 0.2000 0.0000
vt 0.0000 0.0000 0.0000
vt 0.5000 0.4000 0.0000
vt 0.0000 0.4000 0.0000
vt 0.5000 0.6000 0.0000
vt 0.0000 0.6000 0.0000
vt 0.5000 0.8000 0.0000
vt 0.0000 0.8000 0.0000
vt 0.5000 1.0000 0.0000
vt 0.0000 1.0000 0.0000
vt 1.0000 0.0000 0.0000
vt 1.0000 0.2000 0.0000
vt 1.0000 0.4000 0.0000
vt 1.0000 0.6000 0.0000
vt 1.0000 0.8000 0.0000
vt 1.0000 1.0000 0.0000
vt 1.0000 0.5000 0.0000
vt 0.5000 0.5000 0.0000
vt 0.2000 0.0000 0.0000
vt 0.2000 0.5000 0.0000
vt 0.0000 0.5000 0.0000
vt 0.4000 0.0000 0.0000
vt 0.4000 0.5000 0.0000
vt 0.6000 0.0000 0.0000
vt 0.6000 0.5000 0.0000
vt 0.8000 0.0000 0.0000
vt 0.8000 0.5000 0.0000
vt 0.2000 1.0000 0.0000
vt 0.4000 1.0000 0.0000
vt 0.6000 1.0000 0.0000
vt 0.8000 1.0000 0.0000
# 33 texture coords

g Box001
f 1/1/1 2/2/2 3/3/3 4/4/4 
f 2/2/2 5/5/5 6/6/6 3/3/3 
f 5/5/5 7/7/7 8/8/8 6/6/6 
f 7/7/7 9/9/9 10/10/10 8/8/8 
f 9/9/9 11/11/11 12/12/12 10/10/10 
f 13/1/13 14/13/13 15/14/14 16/2/15 
f 16/2/15 15/14/14 17/15/16 18/5/17 
f 18/5/17 17/15/16 19/16/18 20/7/19 
f 20/7/19 19/16/18 21/17/20 22/9/21 
f 22/9/21 21/17/20 23/18/22 24/11/23 
f 25/1/24 26/13/24 27/19/25 28/20/25 
f 28/20/25 27/19/25 29/18/26 30/11/26 
f 4/4/27 3/21/28 31/22/29 32/23/27 
f 3/21/28 6/24/30 33/25/31 31/22/29 
f 6/24/30 8/26/32 34/27/33 33/25/31 
f 8/26/32 10/28/34 35/29/35 34/27/33 
f 10/28/34 12/13/36 36/19/37 35/29/35 
f 32/23/27 31/22/29 15/30/27 14/12/27 
f 31/22/29 33/25/31 17/31/38 15/30/27 
f 33/25/31 34/27/33 19/32/39 17/31/38 
f 34/27/33 35/29/35 21/33/40 19/32/39 
f 35/29/35 36/19/37 23/18/41 21/33/40 
f 12/4/42 11/1/43 37/20/44 36/23/45 
f 36/23/45 37/20/44 24/11/46 23/12/47 
f 1/1/48 4/13/48 38/13/48 39/1/48 
f 4/13/27 32/19/27 40/19/27 38/13/27 
f 32/19/27 14/18/27 41/18/27 40/19/27 
f 14/18/49 13/11/49 42/11/49 41/18/49 
f 39/1/48 38/13/48 43/13/48 44/1/48 
f 38/13/27 40/19/27 45/19/27 43/13/27 
f 40/19/27 41/18/27 46/18/27 45/19/27 
f 41/18/49 42/11/49 47/11/49 46/18/49 
f 44/1/48 43/13/48 48/13/48 49/1/48 
f 43/13/27 45/19/27 50/19/27 48/13/27 
f 45/19/27 46/18/27 51/18/27 50/19/27 
f 46/18/49 47/11/49 52/11/49 51/18/49 
f 49/1/48 48/13/48 26/13/48 25/1/48 
f 48/13/27 50/19/27 27/19/27 26/13/27 
f 50/19/27 51/18/27 29/18/27 27/19/27 
f 51/18/49 52/11/49 30/11/49 29/18/49 
f 1/1/1 53/4/4 54/3/50 2/2/2 
f 2/2/2 54/3/50 55/6/51 5/5/5 
f 5/5/5 55/6/51 56/8/52 7/7/7 
f 7/7/7 56/8/52 57/10/53 9/9/9 
f 9/9/9 57/10/53 58/12/54 11/11/11 
f 13/1/13 16/2/15 59/14/14 60/13/13 
f 16/2/15 18/5/17 61/15/55 59/14/14 
f 18/5/17 20/7/19 62/16/56 61/15/55 
f 20/7/19 22/9/21 63/17/57 62/16/56 
f 22/9/21 24/11/23 64/18/58 63/17/57 
f 25/1/24 28/20/25 65/19/25 66/13/24 
f 28/20/25 30/11/26 67/18/26 65/19/25 
f 53/4/59 68/23/59 69/22/60 54/21/61 
f 54/21/61 69/22/60 70/25/62 55/24/63 
f 55/24/63 70/25/62 71/27/64 56/26/65 
f 56/26/65 71/27/64 72/29/66 57/28/67 
f 57/28/67 72/29/66 73/19/68 58/13/69 
f 68/23/59 60/12/59 59/30/59 69/22/60 
f 69/22/60 59/30/59 61/31/70 70/25/62 
f 70/25/62 61/31/70 62/32/71 71/27/64 
f 71/27/64 62/32/71 63/33/72 72/29/66 
f 72/29/66 63/33/72 64/18/73 73/19/68 
f 58/4/74 73/23/75 37/20/44 11/1/43 
f 73/23/75 64/12/76 24/11/46 37/20/44 
f 1/1/48 39/1/48 74/13/48 53/13/48 
f 53/13/59 74/13/59 75/19/59 68/19/59 
f 68/19/59 75/19/59 76/18/59 60/18/59 
f 60/18/49 76/18/49 42/11/49 13/11/49 
f 39/1/48 44/1/48 77/13/48 74/13/48 
f 74/13/59 77/13/59 78/19/59 75/19/59 
f 75/19/59 78/19/59 79/18/59 76/18/59 
f 76/18/49 79/18/49 47/11/49 42/11/49 
f 44/1/48 49/1/48 80/13/48 77/13/48 
f 77/13/59 80/13/59 81/19/59 78/19/59 
f 78/19/59 81/19/59 82/18/59 79/18/59 
f 79/18/49 82/18/49 52/11/49 47/11/49 
f 49/1/48 25/1/48 66/13/48 80/13/48 
f 80/13/59 66/13/59 65/19/59 81/19/59 
f 81/19/59 65/19/59 67/18/59 82/18/59 
f 82/18/49 67/18/49 30/11/49 52/11/49 
# 80 polygons

